<svg xmlns="http://www.w3.org/2000/svg" xmlns:xlink="http://www.w3.org/1999/xlink" id="Calque_1" x="0px" y="0px" viewBox="0 0 137 36" style="enable-background:new 0 0 137 36;" xml:space="preserve"><style type="text/css">	.st0{clip-path:url(#SVGID_2_);}	.st1{fill:#272D37;}</style><g>	<defs>		<rect id="SVGID_1_" width="137" height="36"></rect>	</defs>	<clipPath id="SVGID_2_">		<use xlink:href="#SVGID_1_" style="overflow:visible;"></use>	</clipPath>	<g class="st0">		<path class="st1" d="M100.5,34.7v-2h3.1v-1.2h-3.1v-1.8h3.8v-1.2h-5.1v7.4h5.1v-1.2L100.5,34.7z M89.7,29.7c0.2,0,0.3,0,0.5,0.1   s0.3,0.2,0.4,0.3c0.1,0.1,0.2,0.3,0.3,0.4c0.1,0.2,0.1,0.3,0.1,0.5c0,0.2,0,0.4-0.1,0.5c-0.1,0.2-0.2,0.3-0.3,0.4   c-0.1,0.1-0.3,0.2-0.4,0.3s-0.3,0.1-0.5,0.1h-2v-2.6H89.7z M86.5,35.9h1.3v-2.4h1.9c1.6,0,2.7-1,2.7-2.5c0-1.5-1.1-2.5-2.7-2.5   h-3.2L86.5,35.9z M73,28.5V33c0,1.8,1.3,3,3.1,3s3.1-1.1,3.1-3v-4.5H78V33c0,1-0.7,1.7-1.8,1.7c-1.1,0-1.8-0.7-1.8-1.7v-4.5   L73,28.5z M62.5,34.8c-0.7,0-1.3-0.3-1.7-0.8c-0.5-0.5-0.7-1.1-0.7-1.8c0-0.7,0.3-1.3,0.7-1.8c0.5-0.5,1.1-0.8,1.7-0.8   c1.4,0,2.4,1.1,2.4,2.6c0,0.3,0,0.7-0.1,1c-0.1,0.3-0.3,0.6-0.5,0.8c-0.2,0.2-0.5,0.4-0.8,0.6C63.2,34.7,62.8,34.8,62.5,34.8   L62.5,34.8z M62.5,28.4c-0.7,0-1.5,0.2-2.1,0.6c-0.6,0.4-1.1,1-1.4,1.7c-0.3,0.7-0.4,1.5-0.2,2.2c0.1,0.7,0.5,1.4,1,1.9   c0.5,0.5,1.2,0.9,1.9,1c0.7,0.1,1.5,0.1,2.2-0.2c0.7-0.3,1.3-0.8,1.7-1.4c0.4-0.6,0.6-1.4,0.6-2.1c0-0.5-0.1-1-0.3-1.5   c-0.2-0.5-0.5-0.9-0.8-1.2c-0.4-0.4-0.8-0.6-1.2-0.8C63.5,28.5,63,28.4,62.5,28.4z M49.4,29.7c0.9,0,1.4,0.5,1.4,1.2   c0,0.7-0.5,1.2-1.4,1.2h-1.7v-2.4H49.4z M46.4,35.9h1.3v-2.5h1.5l1.8,2.5h1.5l-2.1-2.8c0.5-0.1,0.9-0.4,1.2-0.8   c0.3-0.4,0.4-0.9,0.4-1.4c0-1.4-1.1-2.4-2.7-2.4h-3L46.4,35.9z M39.4,31.9h-3.1V33h1.9v1.5c-0.5,0.2-1,0.3-1.6,0.3   c-1.5,0-2.6-1-2.6-2.6c0-0.3,0-0.7,0.2-1c0.1-0.3,0.3-0.6,0.5-0.8c0.2-0.2,0.5-0.4,0.8-0.6c0.3-0.1,0.6-0.2,1-0.2   c0.4,0,0.7,0.1,1.1,0.2c0.3,0.1,0.7,0.3,0.9,0.6l0.8-1c-0.8-0.7-1.8-1.1-2.8-1.1c-2.2,0-3.8,1.6-3.8,3.8c0,2.3,1.6,3.8,3.9,3.8   c1,0,2-0.3,2.8-0.8L39.4,31.9z"></path>		<path class="st1" d="M74.5,23.6h17.7v-2.2H77.6v-7h11v-2.2h-11V5.6h14.6V3.4H74.5V23.6z"></path>		<path class="st1" d="M83.7,0.2l-2.4,2.7l7.5-2.7H83.7z"></path>		<path class="st1" d="M119.1,3.4v20.2H137v-2.2h-15.1v-18H119.1z"></path>		<path class="st1" d="M103.7,3.4L93.6,23.6H97l2.6-5.2h12.1l2.6,5.2h3.4L107.5,3.4H103.7z M100.9,15.8l4.7-9.6l4.8,9.6H100.9z"></path>		<path class="st1" d="M64.9,15.1c4.5-1.2,5-4.7,4.9-5.9c-0.3-3.6-2.7-5.8-6.9-5.8H50.5v20.2h2.8v-8.5h8.1l6,8.5H71   C71,23.6,66.7,17.9,64.9,15.1L64.9,15.1z M62.6,12.7h-9.2V5.8h9.6c2.2,0,3.4,1,3.9,2.4c0.1,0.5,0.2,1,0.1,1.5   c-0.1,0.5-0.2,1-0.5,1.4C65.6,12.4,64.1,12.7,62.6,12.7"></path>		<path class="st1" d="M33.3,22.8c-5.5,0-10.1-4.5-10.1-10c0-5.5,4.4-10.2,10.3-10.2c1.3,0,2.6,0.2,3.9,0.8s2.3,1.3,3.3,2.2   c0.9,1,1.7,2.1,2.2,3.3c0.5,1.2,0.8,2.6,0.8,3.9C43.7,18.2,38.9,22.8,33.3,22.8z M33.4,0c-8,0-13.5,5.8-13.5,12.7   c0,7.3,6,12.5,13.5,12.5c7.4,0,13.5-5.1,13.5-12.5C46.9,5.8,41.4,0,33.4,0z"></path>		<path class="st1" d="M12.8,10.5h2l3.7-7.1h-3L12.8,10.5z"></path>		<path class="st1" d="M0,3.4v20.2h17.9v-2.2H2.8v-18H0z"></path>	</g></g></svg>